<?xml version="1.0" encoding="utf-8"?>
<!-- Generator: Adobe Illustrator 15.1.0, SVG Export Plug-In . SVG Version: 6.00 Build 0)  -->
<!DOCTYPE svg PUBLIC "-//W3C//DTD SVG 1.1//EN" "http://www.w3.org/Graphics/SVG/1.1/DTD/svg11.dtd">
<svg version="1.1" id="Calque_1" xmlns="http://www.w3.org/2000/svg" xmlns:xlink="http://www.w3.org/1999/xlink" x="0px" y="0px"
	 width="538.58px" height="170.08px" viewBox="0 0 538.58 170.08" enable-background="new 0 0 538.58 170.08" xml:space="preserve">
<g>
	<g opacity="0.75">
		<path fill="#7E64A4" d="M134.939,40.225c0-3.169,2.593-5.763,5.763-5.763h52.414c3.169,0,5.763,2.593,5.763,5.763v89.718
			c0,3.17-2.593,5.763-5.763,5.763h-52.414c-3.169,0-5.763-2.593-5.763-5.763V40.225z"/>
	</g>
	<g opacity="0.75">
		<path fill="#7E64A4" d="M31.824,40.098c0-3.1,2.536-5.636,5.636-5.636h142.948c3.1,0,5.636,2.536,5.636,5.636v89.972
			c0,3.1-2.536,5.636-5.636,5.636H37.459c-3.1,0-5.636-2.536-5.636-5.636V40.098z"/>
	</g>
	<g opacity="0.45">
		<path fill="#7E64A4" d="M18.197,39.072c0-2.535,2.075-4.61,4.61-4.61h124.992c2.535,0,4.61,2.075,4.61,4.61v92.023
			c0,2.536-2.075,4.61-4.61,4.61H22.807c-2.535,0-4.61-2.074-4.61-4.61V39.072z"/>
	</g>
	<g>
		<g>
			<path fill="#7E64A4" d="M312.822,111.159V65.645c-1.822,7.214-5.072,15.5-10.428,24.876
				c-4.553,7.962-10.199,15.607-16.729,22.206C294.125,118.186,304.115,115.848,312.822,111.159"/>
			<path fill="#7E64A4" d="M280.115,105.123c3.414-3.068,5.539-5.466,7.947-8.354c12.348-14.834,27.777-40.619,24.285-56.444
				c-2.842-12.9-15.18-0.609-20.648,6.28c-7.166,9.019-12.135,19.828-14.262,31.175C275.682,87.091,275.873,96.922,280.115,105.123"
				/>
			<path fill="#7E64A4" d="M225.408,76.917c-0.16,0.201,1.105,4.381,1.883,6.359c0.791,1.979,1.412,2.881,1.058,3.523
				c-3.916,7.033-8.714,19.514-6.788,26.721c0.692,2.603,3.775,3.798,6.743,2.322c17.259-8.566,23.219-37.984,23.733-39.868
				c0.476,1.64,0.628,2.979,1.458,4.911c0.827,1.936,1.846,3.544,1.483,4.994c-0.979,3.877-1.947,7.881-3.143,11.809
				c-0.842,3.842-1.762,8.857-0.888,11.656c3.756,12.153,17.896,5.63,27.068-2.259c-3.646-10.434-5.5-21.183-4.594-32.442
				c1.148-14.272,7.018-29.589,17.197-40.182h-72.656c-3.524,0-6.376,2.852-6.376,6.373v50.51
				C216.6,86.94,221.357,82.271,225.408,76.917"/>
		</g>
		<path fill="#7E64A4" d="M282.121,116.08c-1.121,1-2.275,1.969-3.465,2.884c-10.386,8.09-21.218,10.313-27.027-3.645
			c-1.26-3.021-2.105-5.969-2.635-8.873c-0.06-0.17-0.106-0.339-0.169-0.509c-1.814,4.09-4.409,7.684-7.285,11.238
			c-2.44,3.005-7.413,8.619-11.641,9.049c-4.407,0.454-6.358-3.879-7.778-7.419c-1.577-3.926-3.634-9.461-3.592-13.756
			c0.031-3.021,1.582-10.852,2.36-13.684c-2.419,3.232-6.038,7.752-9.302,11.021v26.931c0,3.524,2.852,6.387,6.376,6.387h88.484
			c3.525,0,6.375-2.862,6.375-6.387v-6.941C301.412,127.25,289.201,126.694,282.121,116.08"/>
	</g>
</g>
<g>
	<path fill="#4C565C" d="M345.318,54.46h5.09l0.012,16.681c0.008,7.789-4.795,10.341-10.219,10.346
		c-5.428,0-10.225-2.55-10.225-10.333l-0.016-16.683l5.098-0.006l0.004,16.906c0,4.313,1.697,5.832,5.139,5.827
		c3.432,0,5.123-1.514,5.123-5.827"/>
	<path fill="#4C565C" d="M357.73,81.103l-0.01-19.193l4.211-0.002v2.071c1.691-1.184,3.656-2.445,5.902-2.445
		c3.84,0,5.691,2.512,5.691,6.418l0.01,13.15h-4.582l-0.004-12.481c0-2.583-0.816-3.388-2.365-3.388
		c-1.996,0-3.51,1.142-4.285,2.026l0.01,13.845"/>
	<path fill="#4C565C" d="M380.574,58.352l-0.004-4.28h4.574l0.004,4.28 M385.16,81.099h-4.58l-0.006-19.2l4.574-0.007L385.16,81.099
		z"/>
	<polyline fill="#4C565C" points="390.207,61.892 394.783,61.892 397.969,74.883 398.031,74.883 401.281,61.892 405.855,61.885 
		400.369,81.083 395.57,81.087 	"/>
	<path fill="#4C565C" d="M413.539,72.215c0.082,3.995,1.854,5.54,3.992,5.533c2.141,0,3.137-0.957,4.279-2.281l3.322,2.06
		c-1.779,2.733-4.354,3.914-8.047,3.921c-4.979,0.002-8.117-3.876-8.121-9.969c-0.008-6.09,3.129-9.962,8.336-9.969
		c5.02-0.038,7.826,4.204,7.832,8.818v1.886 M420.922,69.114c-0.082-2.662-1.484-4.207-3.695-4.207
		c-2.215,0.002-3.617,1.558-3.695,4.207H420.922z"/>
	<path fill="#4C565C" d="M430.447,81.073l-0.004-19.199h4.201v3.281h0.074c1.111-2.287,2.66-3.578,5.393-3.654v4.833
		c-0.221-0.033-0.48-0.033-0.811-0.033c-2.293,0-4.277,2.617-4.277,3.098l0.002,11.674"/>
	<path fill="#4C565C" d="M454.213,66.917c-0.92-0.99-2.141-2.024-3.582-2.024c-1.771,0-2.582,0.738-2.582,1.888
		c0.002,3.279,9.596,1.873,9.602,8.888c0,3.981-3.025,5.753-7.045,5.758c-3.063,0.005-5.58-1.364-7.275-3.874l3.063-2.292
		c1.07,1.482,2.51,2.771,4.469,2.771c1.627,0,2.73-0.889,2.73-2.182c-0.004-3.277-9.596-2.1-9.605-8.778
		c0-3.58,3.027-5.578,6.35-5.578c2.543,0,5.09,0.961,6.758,2.911"/>
	<path fill="#4C565C" d="M463.582,58.316v-4.285h4.578v4.285 M468.172,81.054h-4.578l-0.012-19.198l4.58-0.002L468.172,81.054z"/>
	<path fill="#4C565C" d="M475.957,61.847l-0.01-6.34l4.582-0.004v6.344h3.766l0.002,3.687h-3.768l0.008,10.863
		c0,1.03,0.52,1.326,1.66,1.326c0.701,0,1.438-0.223,2.1-0.375l0.006,3.768c-1.256,0.145-2.367,0.294-3.609,0.294
		c-3.406,0.007-4.73-1.692-4.736-4.422V65.545h-2.66l-0.004-3.691"/>
	<path fill="#4C565C" d="M492.455,72.177c0.08,3.988,1.844,5.54,3.996,5.54c2.133-0.002,3.133-0.968,4.279-2.285l3.318,2.058
		c-1.775,2.733-4.355,3.914-8.045,3.921c-4.986,0-8.125-3.876-8.127-9.966c-0.004-6.088,3.137-9.969,8.338-9.969
		c5.023-0.045,7.826,4.206,7.834,8.81v1.886 M499.838,69.076c-0.074-2.666-1.473-4.206-3.691-4.206
		c-2.213,0-3.619,1.554-3.691,4.211L499.838,69.076z M502.381,54.012l-5.391,5.392l-3.764,0.005l3.469-5.393L502.381,54.012z"/>
	<path fill="#4C565C" d="M345.047,113.9l-3.873,0.005l-0.221-2.073c-1.627,1.587-3.133,2.438-5.205,2.442
		c-5.094,0-7.676-4.503-7.682-10.485c0-4.72,2.727-9.445,7.674-9.452c1.553,0,3.729,0.926,4.65,2.143h0.076l-0.004-9.229
		l4.578-0.007 M340.467,99.656c-0.918-0.854-2.07-1.628-3.545-1.628c-2.732,0.005-4.277,2.219-4.277,6.277
		c0,4.06,1.551,6.275,4.285,6.273c1.955,0,2.586-0.961,3.541-1.696L340.467,99.656z"/>
	<path fill="#4C565C" d="M354.719,105.035c0.072,3.992,1.848,5.537,3.986,5.537c2.137-0.005,3.143-0.961,4.281-2.292l3.318,2.064
		c-1.766,2.733-4.35,3.919-8.041,3.919c-4.979,0-8.127-3.872-8.127-9.96c0-6.092,3.141-9.978,8.344-9.978
		c5.018-0.038,7.824,4.208,7.824,8.823v1.886 M362.096,101.926c-0.07-2.655-1.475-4.2-3.691-4.2c-2.215,0-3.615,1.551-3.686,4.209
		L362.096,101.926z"/>
	<polyline fill="#4C565C" points="383.969,113.874 383.955,87.224 389.049,87.224 389.061,109.594 400.656,109.589 400.656,113.871 
			"/>
	<path fill="#4C565C" d="M406.285,91.134v-4.287l4.58-0.004v4.285 M410.879,113.867l-4.578,0.004l-0.016-19.2l4.584-0.002
		L410.879,113.867z"/>
	<path fill="#4C565C" d="M417.928,113.854l-0.006-19.19h4.168v2.068c1.738-1.59,3.141-2.435,5.762-2.441
		c1.984,0,3.873,0.957,4.723,2.807c1.592-1.59,3.436-2.809,6.604-2.809c1.998-0.004,4.729,1.18,4.729,5.758l0.008,13.799h-4.574
		l-0.008-13.393c0-1.541-0.631-2.396-2.289-2.477c-1.186,0-2.773,1.078-3.846,2.07l0.012,13.806h-4.574l-0.01-13.394
		c0-1.547-0.631-2.402-2.289-2.472c-1.176,0-2.764,1.072-3.838,2.062l0.004,13.806"/>
	<path fill="#4C565C" d="M457.383,94.279c5.201-0.005,8.338,3.876,8.344,9.962c0.008,6.09-3.135,9.967-8.34,9.967
		c-5.203,0.002-8.342-3.87-8.348-9.958C449.039,98.16,452.172,94.279,457.383,94.279 M457.383,97.974
		c-2.551,0-3.77,1.992-3.766,6.272c0,4.279,1.227,6.277,3.77,6.277c2.547-0.005,3.766-1.998,3.758-6.277
		C461.145,99.962,459.928,97.974,457.383,97.974"/>
	<path fill="#4C565C" d="M486.471,97.369c-1.074,0-2.256,0-2.961,0.438c0.598,0.81,1.039,1.924,1.039,3.396
		c0.002,3.618-2.434,6.204-7.236,6.204c-1.988,0-3.578,0.075-3.578,1.188c0,3.104,12.625-1.112,12.629,6.561
		c0,2.733-2.768,5.688-8.893,5.688c-5.164,0.003-8.564-1.544-8.564-4.574c0-2.396,1.807-3.539,3.469-3.539v-0.081
		c-0.883-0.553-2.852-1.025-2.852-3.096c0-1.844,2.145-3.248,2.994-3.507c-1.59-1.288-2.84-2.764-2.846-5.093
		c0-3.359,2.58-6.682,7.564-6.693c1.621,0,3.539,0.67,4.725,1.703c0.887-1.184,2.322-1.773,4.502-1.703 M473.109,115.68
		c0.006,1.471,1.262,2.144,5.098,2.14c2.955,0,3.949-1.476,3.949-2.145c0-0.878-1.367-2.214-5.795-2.214
		C473.852,113.47,473.109,114.865,473.109,115.68 M477.201,97.667c-1.959,0-3.33,1.407-3.326,3.173c0,1.77,1.373,3.172,3.334,3.172
		c1.73,0,3.133-1.402,3.127-3.172C480.336,99.065,478.936,97.661,477.201,97.667"/>
	<path fill="#4C565C" d="M494.219,104.968c0.076,3.981,1.848,5.533,3.992,5.528c2.145,0,3.139-0.958,4.281-2.287l3.322,2.066
		c-1.773,2.731-4.359,3.915-8.047,3.915c-4.984,0.002-8.119-3.868-8.125-9.96c-0.004-6.088,3.127-9.974,8.34-9.974
		c5.023-0.035,7.826,4.209,7.832,8.821v1.879 M501.598,101.865c-0.072-2.666-1.475-4.209-3.688-4.209
		c-2.221,0-3.619,1.548-3.691,4.209H501.598z"/>
	<path fill="#4C565C" d="M520.76,99.671c-0.924-0.994-2.146-2.032-3.582-2.023c-1.773,0-2.586,0.733-2.586,1.881
		c0.004,3.284,9.605,1.877,9.605,8.893c0,3.986-3.025,5.756-7.047,5.761c-3.066,0.006-5.582-1.364-7.277-3.868l3.068-2.291
		c1.072,1.478,2.506,2.764,4.465,2.764c1.621,0,2.729-0.89,2.727-2.176c0-3.288-9.596-2.102-9.604-8.78
		c0-3.583,3.029-5.575,6.35-5.579c2.549,0,5.096,0.951,6.75,2.913"/>
</g>
<g>
	<path fill="#FFFFFF" d="M62.013,56.668c-0.739-1.596-1.596-2.75-2.571-3.458c-0.975-0.709-2.262-1.064-3.857-1.064
		c-1.124,0-2.107,0.273-2.949,0.82c-0.843,0.548-1.545,1.323-2.107,2.328c-0.562,1.005-0.983,2.224-1.263,3.658
		c-0.282,1.434-0.421,3.037-0.421,4.811c0,3.37,0.599,6.045,1.796,8.025c1.197,1.981,2.86,2.971,4.989,2.971
		c2.01,0,3.613-0.591,4.811-1.773c1.197-1.182,1.825-2.705,1.884-4.567h-6.075v-5.144h11.973v16.185h-4.434v-3.282
		c-1.302,1.419-2.595,2.395-3.881,2.927c-1.285,0.532-2.771,0.798-4.456,0.798c-2.187,0-4.08-0.407-5.676-1.219
		c-1.596-0.813-2.911-1.936-3.945-3.37c-1.036-1.433-1.812-3.119-2.329-5.055c-0.517-1.936-0.775-4.042-0.775-6.318
		c0-2.04,0.214-4.072,0.643-6.097c0.428-2.024,1.159-3.835,2.194-5.432c1.035-1.596,2.402-2.896,4.102-3.902
		c1.7-1.004,3.835-1.508,6.408-1.508c1.596,0,3.03,0.208,4.3,0.621c1.271,0.414,2.387,0.983,3.348,1.707
		c0.961,0.725,1.766,1.582,2.417,2.572c0.65,0.991,1.168,2.077,1.551,3.259L62.013,56.668z"/>
	<path fill="#FFFFFF" d="M72.611,79.459V47.446h21.195v5.143H78.729v7.626h10.952v5.144H78.729v8.957h15.563v5.144H72.611z"/>
	<path fill="#FFFFFF" d="M122.094,63.452c0,5.262-1.138,9.319-3.414,12.172c-2.277,2.853-5.616,4.279-10.021,4.279
		c-4.405,0-7.744-1.426-10.021-4.279c-2.277-2.853-3.415-6.91-3.415-12.172c0-5.261,1.138-9.318,3.415-12.171
		c2.276-2.852,5.615-4.279,10.021-4.279c4.405,0,7.744,1.427,10.021,4.279C120.956,54.134,122.094,58.191,122.094,63.452z
		 M115.975,63.452c0-3.783-0.591-6.613-1.773-8.491c-1.183-1.877-3.03-2.815-5.542-2.815c-2.513,0-4.36,0.938-5.542,2.815
		c-1.184,1.877-1.774,4.708-1.774,8.491c-0.059,3.785,0.511,6.615,1.708,8.492c1.197,1.877,3.066,2.815,5.609,2.815
		c2.512,0,4.36-0.938,5.542-2.815C115.384,70.067,115.975,67.237,115.975,63.452z"/>
	<path fill="#FFFFFF" d="M124.842,79.459V47.446h6.119v26.87h13.923v5.144H124.842z"/>
	<path fill="#FFFFFF" d="M153.752,47.401h7.627l9.089,32.059h-6.075l-1.774-6.917h-10.109l-1.906,6.917h-6.074L153.752,47.401z
		 M153.841,67.487h7.45l-3.592-13.922h-0.088L153.841,67.487z"/>
	<path fill="#FFFFFF" d="M172.419,47.446h11.883c1.596,0,3.044,0.14,4.345,0.421c1.301,0.281,2.417,0.731,3.348,1.352
		c0.931,0.621,1.67,1.435,2.217,2.439c0.547,1.005,0.864,2.217,0.953,3.636c0,1.685-0.37,3.148-1.108,4.389
		c-0.74,1.242-1.995,2.203-3.77,2.882c1.035,0.414,1.907,0.865,2.617,1.353c0.709,0.488,1.285,1.049,1.729,1.685
		c0.443,0.636,0.761,1.397,0.953,2.284c0.192,0.887,0.288,1.936,0.288,3.148c0,1.242-0.221,2.38-0.665,3.414
		c-0.443,1.035-1.146,1.922-2.106,2.661c-0.96,0.739-2.172,1.315-3.636,1.729c-1.462,0.415-3.214,0.621-5.254,0.621h-11.794V47.446z
		 M178.538,60.215h6.119c1.478,0,2.579-0.369,3.304-1.108c0.723-0.738,1.085-1.669,1.085-2.793s-0.362-2.055-1.085-2.794
		c-0.725-0.738-1.826-1.108-3.304-1.108h-6.119V60.215z M178.538,74.493h6.119c1.773,0,3.066-0.392,3.88-1.175
		c0.813-0.782,1.219-1.943,1.219-3.48c0-1.537-0.407-2.697-1.219-3.48c-0.813-0.783-2.106-1.175-3.88-1.175h-6.119V74.493z"/>
</g>
<g>
	<path fill="#FFFFFF" d="M43.096,83.052H44v9.15h4.41v0.738h-5.313V83.052z"/>
	<path fill="#FFFFFF" d="M53.587,92.94l-0.11-0.862c-0.21,0.163-0.413,0.312-0.609,0.438c-0.197,0.127-0.395,0.232-0.596,0.313
		c-0.201,0.083-0.414,0.146-0.637,0.185c-0.224,0.043-0.473,0.063-0.747,0.063c-0.557,0-1.023-0.162-1.396-0.485
		c-0.375-0.324-0.562-0.782-0.562-1.378c0-0.483,0.098-0.881,0.294-1.189c0.196-0.311,0.486-0.568,0.87-0.773
		c0.384-0.207,0.861-0.382,1.431-0.529c0.571-0.145,1.226-0.301,1.966-0.466v-0.492c0-0.476-0.119-0.831-0.356-1.067
		c-0.238-0.239-0.662-0.357-1.274-0.357c-0.429,0-0.814,0.111-1.157,0.336c-0.343,0.224-0.646,0.54-0.911,0.953l-0.548-0.33
		c0.311-0.575,0.685-0.988,1.123-1.24c0.438-0.25,0.945-0.376,1.52-0.376c0.813,0,1.414,0.174,1.801,0.521
		c0.388,0.345,0.583,0.916,0.583,1.712v3.725c0,0.184,0.007,0.386,0.02,0.609c0.014,0.225,0.043,0.454,0.089,0.691H53.587z
		 M53.45,88.913c-0.813,0.184-1.463,0.361-1.952,0.535c-0.489,0.174-0.862,0.354-1.123,0.541s-0.43,0.379-0.507,0.575
		c-0.078,0.197-0.116,0.409-0.116,0.636c0,0.393,0.118,0.695,0.356,0.906c0.237,0.209,0.543,0.313,0.917,0.313
		c0.383,0,0.794-0.104,1.232-0.313c0.438-0.211,0.835-0.499,1.191-0.863V88.913z"/>
	<path fill="#FFFFFF" d="M56.682,83.052h0.822v3.699c0.173-0.184,0.342-0.343,0.506-0.48c0.165-0.137,0.335-0.248,0.513-0.335
		c0.178-0.087,0.366-0.151,0.562-0.192c0.196-0.041,0.413-0.062,0.65-0.062c0.411,0,0.79,0.091,1.137,0.274
		c0.347,0.182,0.644,0.438,0.891,0.767c0.246,0.329,0.438,0.718,0.575,1.163c0.137,0.448,0.206,0.932,0.206,1.453
		c0,1.223-0.245,2.152-0.733,2.787c-0.489,0.635-1.199,0.951-2.13,0.951c-0.493,0-0.931-0.084-1.315-0.254
		c-0.383-0.168-0.708-0.439-0.972-0.813l-0.137,0.931h-0.575V83.052z M57.504,91.118c0.136,0.184,0.275,0.354,0.417,0.516
		c0.142,0.158,0.299,0.299,0.473,0.416c0.173,0.119,0.361,0.211,0.562,0.274c0.201,0.065,0.429,0.096,0.684,0.096
		c0.356,0,0.665-0.075,0.925-0.226s0.477-0.358,0.651-0.623c0.173-0.266,0.301-0.576,0.383-0.932c0.082-0.355,0.123-0.74,0.123-1.15
		c0-0.467-0.045-0.89-0.137-1.273c-0.092-0.383-0.229-0.715-0.411-0.993s-0.414-0.495-0.691-0.651
		c-0.279-0.154-0.601-0.232-0.966-0.232c-0.201,0-0.406,0.043-0.616,0.131c-0.21,0.086-0.406,0.195-0.589,0.328
		c-0.183,0.132-0.347,0.272-0.493,0.417c-0.146,0.147-0.251,0.278-0.314,0.397V91.118z"/>
	<path fill="#FFFFFF" d="M66.461,85.682c0.557,0,1.022,0.103,1.397,0.309c0.374,0.205,0.676,0.479,0.904,0.821
		c0.228,0.344,0.39,0.736,0.486,1.178c0.096,0.443,0.144,0.906,0.144,1.391c0,0.483-0.048,0.947-0.144,1.391
		c-0.096,0.442-0.258,0.835-0.486,1.178c-0.229,0.343-0.53,0.615-0.904,0.822c-0.375,0.205-0.84,0.307-1.397,0.307
		c-0.557,0-1.022-0.102-1.397-0.307c-0.375-0.207-0.676-0.479-0.904-0.822c-0.228-0.343-0.39-0.735-0.486-1.178
		c-0.096-0.443-0.144-0.907-0.144-1.391c0-0.484,0.048-0.947,0.144-1.391c0.096-0.441,0.258-0.834,0.486-1.178
		c0.229-0.342,0.53-0.616,0.904-0.821C65.438,85.784,65.904,85.682,66.461,85.682z M66.461,86.339c-0.74,0-1.276,0.266-1.609,0.795
		c-0.333,0.529-0.5,1.278-0.5,2.246c0,0.967,0.167,1.717,0.5,2.246c0.333,0.529,0.87,0.794,1.609,0.794s1.276-0.265,1.609-0.794
		s0.5-1.279,0.5-2.246c0-0.968-0.167-1.717-0.5-2.246S67.201,86.339,66.461,86.339z"/>
	<path fill="#FFFFFF" d="M70.953,92.94v-7.122h0.822v1.356h0.028c0.191-0.439,0.467-0.797,0.828-1.075s0.77-0.418,1.226-0.418h0.37
		v0.794h-0.37c-0.229,0-0.464,0.064-0.706,0.192c-0.242,0.128-0.465,0.302-0.671,0.521c-0.205,0.219-0.375,0.477-0.507,0.773
		c-0.133,0.297-0.199,0.615-0.199,0.951v4.027H70.953z"/>
	<path fill="#FFFFFF" d="M79.458,92.94l-0.11-0.862c-0.21,0.163-0.413,0.312-0.609,0.438c-0.197,0.127-0.395,0.232-0.596,0.313
		c-0.201,0.083-0.414,0.146-0.637,0.185c-0.224,0.043-0.472,0.063-0.747,0.063c-0.557,0-1.022-0.162-1.396-0.485
		c-0.375-0.324-0.562-0.782-0.562-1.378c0-0.483,0.098-0.881,0.294-1.189c0.196-0.311,0.486-0.568,0.87-0.773
		c0.383-0.207,0.86-0.382,1.431-0.529c0.57-0.145,1.226-0.301,1.965-0.466v-0.492c0-0.476-0.119-0.831-0.356-1.067
		c-0.238-0.239-0.662-0.357-1.274-0.357c-0.429,0-0.815,0.111-1.157,0.336c-0.343,0.224-0.646,0.54-0.911,0.953l-0.548-0.33
		c0.311-0.575,0.685-0.988,1.123-1.24c0.438-0.25,0.945-0.376,1.521-0.376c0.813,0,1.413,0.174,1.801,0.521
		c0.388,0.345,0.583,0.916,0.583,1.712v3.725c0,0.184,0.007,0.386,0.02,0.609c0.014,0.225,0.043,0.454,0.089,0.691H79.458z
		 M79.322,88.913c-0.813,0.184-1.464,0.361-1.952,0.535c-0.489,0.174-0.863,0.354-1.123,0.541s-0.43,0.379-0.507,0.575
		c-0.077,0.197-0.116,0.409-0.116,0.636c0,0.393,0.118,0.695,0.356,0.906c0.237,0.209,0.543,0.313,0.917,0.313
		c0.383,0,0.794-0.104,1.232-0.313c0.438-0.211,0.835-0.499,1.192-0.863V88.913z"/>
	<path fill="#FFFFFF" d="M82.499,85.818v-2.327h0.822v2.327h1.562v0.657h-1.562v5.219c0,0.484,0.242,0.726,0.726,0.726
		c0.137,0,0.278-0.013,0.425-0.041c0.146-0.028,0.282-0.063,0.411-0.109v0.686c-0.137,0.019-0.276,0.042-0.418,0.075
		c-0.142,0.031-0.28,0.047-0.417,0.047c-0.584,0-0.989-0.098-1.212-0.293c-0.224-0.197-0.335-0.515-0.335-0.953v-5.355h-1.068
		v-0.657H82.499z"/>
	<path fill="#FFFFFF" d="M88.525,85.682c0.557,0,1.022,0.103,1.397,0.309c0.374,0.205,0.675,0.479,0.904,0.821
		c0.228,0.344,0.39,0.736,0.486,1.178c0.096,0.443,0.144,0.906,0.144,1.391c0,0.483-0.048,0.947-0.144,1.391
		c-0.096,0.442-0.258,0.835-0.486,1.178c-0.229,0.343-0.53,0.615-0.904,0.822c-0.375,0.205-0.84,0.307-1.397,0.307
		c-0.558,0-1.023-0.102-1.397-0.307c-0.375-0.207-0.675-0.479-0.904-0.822c-0.228-0.343-0.39-0.735-0.486-1.178
		c-0.096-0.443-0.144-0.907-0.144-1.391c0-0.484,0.048-0.947,0.144-1.391c0.096-0.441,0.258-0.834,0.486-1.178
		c0.229-0.342,0.529-0.616,0.904-0.821C87.502,85.784,87.968,85.682,88.525,85.682z M88.525,86.339c-0.74,0-1.276,0.266-1.61,0.795
		c-0.333,0.529-0.5,1.278-0.5,2.246c0,0.967,0.167,1.717,0.5,2.246c0.333,0.529,0.87,0.794,1.61,0.794
		c0.739,0,1.275-0.265,1.609-0.794c0.333-0.529,0.5-1.279,0.5-2.246c0-0.968-0.167-1.717-0.5-2.246
		C89.801,86.604,89.265,86.339,88.525,86.339z"/>
	<path fill="#FFFFFF" d="M93.059,84.257v-1.205h0.822v1.205H93.059z M93.88,92.94h-0.822v-7.122h0.822V92.94z"/>
	<path fill="#FFFFFF" d="M96.058,92.94v-7.122h0.821v1.356h0.028c0.192-0.439,0.468-0.797,0.828-1.075
		c0.361-0.278,0.77-0.418,1.226-0.418h0.37v0.794h-0.37c-0.229,0-0.463,0.064-0.706,0.192c-0.242,0.128-0.465,0.302-0.671,0.521
		c-0.205,0.219-0.375,0.477-0.506,0.773c-0.133,0.297-0.199,0.615-0.199,0.951v4.027H96.058z"/>
	<path fill="#FFFFFF" d="M100.865,89.406c0,0.403,0.043,0.787,0.13,1.151c0.086,0.365,0.221,0.686,0.404,0.959
		c0.182,0.273,0.419,0.493,0.712,0.657c0.292,0.164,0.639,0.246,1.041,0.246c0.229,0,0.432-0.022,0.61-0.069
		c0.178-0.044,0.347-0.122,0.506-0.231c0.16-0.109,0.315-0.257,0.466-0.438c0.15-0.184,0.317-0.415,0.5-0.698l0.671,0.356
		c-0.191,0.318-0.383,0.589-0.575,0.807c-0.191,0.221-0.397,0.397-0.616,0.535c-0.219,0.137-0.461,0.236-0.726,0.301
		c-0.265,0.064-0.566,0.096-0.904,0.096c-0.932,0-1.671-0.303-2.219-0.911c-0.548-0.606-0.821-1.536-0.821-2.786
		c0-0.549,0.068-1.051,0.205-1.508c0.137-0.455,0.331-0.847,0.582-1.17c0.251-0.324,0.557-0.574,0.917-0.754
		c0.36-0.178,0.77-0.267,1.226-0.267c0.484,0,0.904,0.091,1.26,0.274c0.356,0.182,0.653,0.438,0.89,0.767
		c0.237,0.329,0.414,0.722,0.528,1.178c0.114,0.456,0.171,0.958,0.171,1.506H100.865z M105.001,88.75
		c-0.082-0.739-0.288-1.324-0.616-1.753c-0.329-0.43-0.808-0.648-1.438-0.658c-0.366,0-0.678,0.08-0.938,0.24
		c-0.26,0.158-0.475,0.361-0.644,0.603s-0.294,0.504-0.377,0.787c-0.082,0.282-0.123,0.544-0.123,0.781H105.001z"/>
	<path fill="#FFFFFF" d="M48.081,106.637h-0.575l-0.137-0.931c-0.265,0.374-0.588,0.646-0.972,0.813
		c-0.384,0.17-0.822,0.254-1.315,0.254c-0.931,0-1.641-0.316-2.129-0.951c-0.489-0.636-0.733-1.564-0.733-2.787
		c0-0.521,0.069-1.005,0.205-1.453c0.137-0.446,0.329-0.835,0.576-1.163s0.543-0.584,0.89-0.768
		c0.347-0.183,0.726-0.273,1.137-0.273c0.475,0,0.879,0.086,1.212,0.26c0.333,0.174,0.673,0.444,1.02,0.809v-3.698h0.822V106.637z
		 M47.259,101.31c-0.073-0.12-0.18-0.252-0.322-0.398c-0.142-0.145-0.304-0.285-0.486-0.417c-0.183-0.133-0.379-0.241-0.589-0.329
		c-0.21-0.086-0.416-0.13-0.616-0.13c-0.375,0-0.698,0.077-0.973,0.233c-0.273,0.154-0.502,0.371-0.685,0.65
		c-0.183,0.277-0.319,0.609-0.411,0.993c-0.091,0.383-0.137,0.807-0.137,1.272c0,0.411,0.041,0.795,0.123,1.15
		c0.083,0.356,0.21,0.667,0.384,0.932c0.173,0.266,0.39,0.473,0.65,0.624c0.26,0.149,0.568,0.226,0.925,0.226
		c0.502,0,0.917-0.123,1.246-0.37c0.329-0.246,0.625-0.558,0.89-0.932V101.31z"/>
	<path fill="#FFFFFF" d="M50.656,103.103c0,0.403,0.043,0.787,0.13,1.151c0.086,0.364,0.221,0.686,0.404,0.958
		c0.182,0.274,0.42,0.494,0.712,0.658c0.292,0.163,0.639,0.246,1.041,0.246c0.229,0,0.432-0.022,0.609-0.069
		c0.179-0.044,0.347-0.122,0.507-0.231s0.315-0.257,0.466-0.439s0.317-0.414,0.5-0.697l0.671,0.356
		c-0.192,0.318-0.383,0.588-0.575,0.807c-0.192,0.22-0.397,0.396-0.616,0.535c-0.219,0.136-0.461,0.236-0.726,0.301
		c-0.266,0.063-0.566,0.096-0.904,0.096c-0.932,0-1.671-0.303-2.219-0.911c-0.548-0.606-0.822-1.536-0.822-2.787
		c0-0.548,0.069-1.05,0.205-1.507c0.137-0.456,0.331-0.847,0.583-1.17c0.251-0.324,0.557-0.575,0.917-0.753
		c0.36-0.18,0.77-0.268,1.226-0.268c0.483,0,0.904,0.091,1.26,0.273c0.356,0.184,0.653,0.439,0.89,0.768s0.414,0.722,0.528,1.178
		c0.114,0.456,0.171,0.958,0.171,1.506H50.656z M54.792,102.446c-0.082-0.739-0.288-1.324-0.617-1.754
		c-0.328-0.429-0.808-0.648-1.438-0.657c-0.366,0-0.678,0.08-0.938,0.239c-0.26,0.16-0.475,0.361-0.644,0.604
		c-0.168,0.242-0.294,0.504-0.376,0.786c-0.082,0.283-0.123,0.544-0.123,0.782H54.792z"/>
	<path fill="#FFFFFF" d="M66.981,99.625c-0.074-0.312-0.178-0.605-0.315-0.884c-0.137-0.279-0.311-0.521-0.521-0.727
		c-0.21-0.205-0.457-0.367-0.739-0.485c-0.284-0.119-0.607-0.179-0.973-0.179c-0.438,0-0.833,0.101-1.185,0.301
		c-0.352,0.201-0.653,0.491-0.904,0.87s-0.445,0.836-0.582,1.37c-0.137,0.533-0.205,1.135-0.205,1.801
		c0,0.529,0.045,1.055,0.136,1.575s0.256,0.986,0.493,1.397c0.238,0.41,0.56,0.741,0.966,0.992c0.406,0.252,0.929,0.376,1.568,0.376
		c0.347,0,0.664-0.061,0.952-0.185c0.288-0.123,0.532-0.294,0.733-0.513c0.201-0.22,0.356-0.473,0.465-0.76
		c0.11-0.288,0.165-0.597,0.165-0.926v-0.903h-2.493v-0.739h3.396v4.629h-0.781v-0.973h-0.027c-0.292,0.383-0.641,0.664-1.048,0.842
		c-0.406,0.179-0.952,0.268-1.637,0.268c-0.548,0-1.054-0.111-1.52-0.335c-0.465-0.225-0.867-0.55-1.205-0.979
		c-0.338-0.429-0.601-0.959-0.788-1.589c-0.187-0.63-0.28-1.356-0.28-2.178s0.101-1.549,0.301-2.178
		c0.201-0.63,0.475-1.159,0.822-1.588c0.347-0.43,0.753-0.756,1.219-0.98c0.466-0.224,0.964-0.336,1.493-0.336
		c0.457,0,0.872,0.072,1.246,0.213c0.375,0.143,0.703,0.338,0.986,0.59c0.283,0.25,0.518,0.553,0.705,0.903
		c0.187,0.353,0.322,0.737,0.404,1.157L66.981,99.625z"/>
	<path fill="#FFFFFF" d="M70.446,103.103c0,0.403,0.043,0.787,0.13,1.151c0.086,0.364,0.221,0.686,0.404,0.958
		c0.182,0.274,0.42,0.494,0.712,0.658c0.292,0.163,0.639,0.246,1.041,0.246c0.229,0,0.432-0.022,0.609-0.069
		c0.179-0.044,0.347-0.122,0.507-0.231s0.315-0.257,0.466-0.439s0.317-0.414,0.5-0.697l0.671,0.356
		c-0.192,0.318-0.383,0.588-0.575,0.807c-0.192,0.22-0.397,0.396-0.616,0.535c-0.219,0.136-0.461,0.236-0.726,0.301
		c-0.266,0.063-0.566,0.096-0.904,0.096c-0.932,0-1.671-0.303-2.219-0.911c-0.548-0.606-0.822-1.536-0.822-2.787
		c0-0.548,0.069-1.05,0.205-1.507c0.137-0.456,0.331-0.847,0.583-1.17c0.251-0.324,0.557-0.575,0.917-0.753
		c0.36-0.18,0.77-0.268,1.226-0.268c0.483,0,0.904,0.091,1.26,0.273c0.356,0.184,0.653,0.439,0.89,0.768s0.414,0.722,0.528,1.178
		c0.114,0.456,0.171,0.958,0.171,1.506H70.446z M74.583,102.446c-0.082-0.739-0.288-1.324-0.617-1.754
		c-0.328-0.429-0.808-0.648-1.438-0.657c-0.366,0-0.678,0.08-0.938,0.239c-0.26,0.16-0.475,0.361-0.644,0.604
		c-0.168,0.242-0.294,0.504-0.376,0.786c-0.082,0.283-0.123,0.544-0.123,0.782H74.583z M74.268,96.831l-1.876,1.889h-0.698
		l1.52-1.889H74.268z"/>
	<path fill="#FFFFFF" d="M79.403,99.378c0.557,0,1.023,0.102,1.397,0.309c0.374,0.205,0.675,0.479,0.904,0.82
		c0.228,0.344,0.39,0.736,0.486,1.179s0.144,0.906,0.144,1.39c0,0.484-0.048,0.947-0.144,1.392
		c-0.096,0.442-0.258,0.835-0.486,1.177c-0.229,0.344-0.53,0.616-0.904,0.822c-0.375,0.205-0.84,0.308-1.397,0.308
		s-1.022-0.103-1.397-0.308c-0.375-0.206-0.675-0.479-0.904-0.822c-0.228-0.342-0.39-0.734-0.486-1.177
		c-0.096-0.444-0.144-0.907-0.144-1.392c0-0.483,0.048-0.947,0.144-1.39c0.096-0.442,0.258-0.835,0.486-1.179
		c0.229-0.342,0.529-0.615,0.904-0.82C78.381,99.479,78.846,99.378,79.403,99.378z M79.403,100.035
		c-0.739,0-1.276,0.265-1.609,0.794c-0.333,0.529-0.5,1.279-0.5,2.246c0,0.968,0.167,1.717,0.5,2.247
		c0.333,0.528,0.87,0.794,1.609,0.794c0.74,0,1.276-0.266,1.609-0.794c0.333-0.53,0.5-1.279,0.5-2.247
		c0-0.967-0.167-1.717-0.5-2.246S80.143,100.035,79.403,100.035z"/>
	<path fill="#FFFFFF" d="M89.415,99.98c-0.183,0-0.381,0.019-0.596,0.055c-0.214,0.036-0.395,0.128-0.541,0.274
		c0.155,0.191,0.279,0.4,0.37,0.629c0.091,0.229,0.137,0.517,0.137,0.864c0,0.437-0.074,0.813-0.22,1.129s-0.344,0.574-0.596,0.774
		c-0.251,0.201-0.543,0.348-0.876,0.444c-0.333,0.096-0.688,0.145-1.062,0.145c-0.228,0-0.431-0.021-0.609-0.063
		c-0.178-0.04-0.358-0.094-0.541-0.157c-0.228,0.083-0.395,0.186-0.5,0.309c-0.105,0.123-0.157,0.249-0.157,0.377
		c0,0.101,0.025,0.189,0.075,0.267c0.05,0.078,0.153,0.142,0.308,0.191c0.155,0.051,0.377,0.089,0.665,0.117
		c0.288,0.026,0.673,0.04,1.157,0.04c1.068,0,1.84,0.163,2.315,0.486c0.475,0.325,0.712,0.778,0.712,1.364
		c0,0.264-0.055,0.513-0.165,0.745c-0.11,0.233-0.29,0.436-0.541,0.61c-0.251,0.174-0.584,0.312-1,0.416
		c-0.416,0.106-0.929,0.158-1.541,0.158c-0.612,0-1.119-0.048-1.521-0.144s-0.719-0.222-0.952-0.377
		c-0.232-0.154-0.397-0.335-0.493-0.54c-0.096-0.205-0.144-0.414-0.144-0.624c0-0.311,0.082-0.593,0.247-0.85
		c0.164-0.254,0.498-0.474,1-0.656v-0.028c-0.265-0.055-0.489-0.146-0.671-0.28c-0.183-0.132-0.274-0.35-0.274-0.651
		c0-0.145,0.032-0.287,0.096-0.424s0.146-0.258,0.247-0.363c0.101-0.104,0.214-0.193,0.342-0.268
		c0.128-0.072,0.255-0.122,0.383-0.148c-0.32-0.22-0.57-0.492-0.753-0.816c-0.182-0.323-0.273-0.673-0.273-1.048
		c0-0.785,0.253-1.408,0.76-1.869c0.506-0.46,1.193-0.691,2.062-0.691c0.346,0,0.652,0.044,0.917,0.13
		c0.265,0.087,0.512,0.208,0.74,0.362c0.42-0.419,0.917-0.629,1.493-0.629V99.98z M86.032,106.116c-0.401,0-0.737,0.034-1.007,0.103
		c-0.269,0.069-0.486,0.158-0.65,0.268s-0.281,0.237-0.349,0.383c-0.068,0.146-0.103,0.297-0.103,0.453
		c0,0.346,0.175,0.629,0.527,0.85c0.352,0.218,0.897,0.327,1.637,0.327c0.895,0,1.543-0.109,1.945-0.327
		c0.401-0.221,0.602-0.518,0.602-0.893c0-0.145-0.036-0.289-0.109-0.43c-0.074-0.143-0.206-0.268-0.397-0.377
		c-0.192-0.11-0.457-0.196-0.794-0.261C86.996,106.148,86.562,106.116,86.032,106.116z M84.265,101.856
		c0,0.311,0.05,0.577,0.151,0.803c0.1,0.223,0.234,0.407,0.404,0.554c0.169,0.146,0.365,0.253,0.589,0.322
		c0.224,0.067,0.459,0.103,0.705,0.103c0.575,0,1.027-0.142,1.356-0.425s0.493-0.734,0.493-1.356c0-0.63-0.165-1.09-0.493-1.383
		c-0.329-0.291-0.781-0.438-1.356-0.438s-1.027,0.165-1.356,0.493C84.43,100.857,84.265,101.3,84.265,101.856z"/>
	<path fill="#FFFFFF" d="M90.744,106.637v-7.122h0.822v1.356h0.028c0.191-0.439,0.467-0.797,0.828-1.075s0.77-0.418,1.226-0.418
		h0.37v0.794h-0.37c-0.229,0-0.464,0.063-0.706,0.192c-0.242,0.128-0.465,0.302-0.671,0.52c-0.205,0.219-0.375,0.478-0.507,0.774
		c-0.133,0.296-0.199,0.615-0.199,0.951v4.027H90.744z"/>
	<path fill="#FFFFFF" d="M99.249,106.637l-0.11-0.862c-0.21,0.163-0.413,0.311-0.609,0.438c-0.197,0.128-0.395,0.233-0.596,0.314
		c-0.201,0.082-0.414,0.145-0.637,0.185c-0.224,0.043-0.473,0.063-0.747,0.063c-0.557,0-1.022-0.162-1.396-0.485
		c-0.375-0.324-0.562-0.783-0.562-1.378c0-0.483,0.098-0.881,0.294-1.19s0.486-0.568,0.87-0.773c0.383-0.206,0.86-0.381,1.431-0.528
		c0.571-0.145,1.226-0.301,1.966-0.466v-0.492c0-0.476-0.119-0.831-0.356-1.068c-0.238-0.238-0.662-0.356-1.274-0.356
		c-0.429,0-0.815,0.111-1.157,0.335c-0.343,0.225-0.646,0.541-0.911,0.953l-0.548-0.33c0.311-0.574,0.685-0.987,1.123-1.239
		c0.438-0.251,0.945-0.376,1.52-0.376c0.813,0,1.414,0.174,1.801,0.521c0.388,0.346,0.583,0.916,0.583,1.712v3.725
		c0,0.183,0.007,0.386,0.02,0.608c0.014,0.226,0.043,0.455,0.089,0.692H99.249z M99.112,102.609
		c-0.813,0.183-1.463,0.361-1.951,0.535c-0.489,0.174-0.863,0.354-1.123,0.541c-0.26,0.187-0.43,0.379-0.507,0.575
		c-0.077,0.197-0.116,0.408-0.116,0.636c0,0.393,0.118,0.694,0.356,0.905c0.237,0.21,0.543,0.314,0.917,0.314
		c0.383,0,0.794-0.104,1.232-0.314c0.438-0.211,0.835-0.498,1.191-0.862V102.609z"/>
	<path fill="#FFFFFF" d="M102.344,99.515h0.822v1.096h0.027c0.282-0.41,0.596-0.719,0.938-0.924
		c0.343-0.207,0.747-0.309,1.212-0.309c0.466,0,0.876,0.102,1.232,0.309c0.356,0.205,0.655,0.48,0.897,0.828
		c0.242,0.348,0.425,0.744,0.548,1.192c0.123,0.446,0.185,0.916,0.185,1.41c0,0.62-0.068,1.16-0.206,1.616
		c-0.137,0.455-0.329,0.834-0.575,1.137c-0.247,0.301-0.543,0.527-0.891,0.678s-0.726,0.226-1.137,0.226
		c-0.238,0-0.454-0.02-0.65-0.063c-0.196-0.04-0.383-0.104-0.562-0.191c-0.178-0.086-0.349-0.198-0.513-0.334
		c-0.165-0.139-0.333-0.297-0.506-0.479v3.45h-0.822V99.515z M103.167,104.844c0.063,0.118,0.169,0.249,0.315,0.396
		c0.146,0.146,0.31,0.285,0.493,0.417c0.182,0.134,0.378,0.243,0.588,0.33s0.416,0.129,0.616,0.129c0.74,0,1.292-0.276,1.657-0.829
		c0.365-0.552,0.548-1.325,0.548-2.32c0-0.366-0.041-0.725-0.123-1.076c-0.083-0.351-0.21-0.664-0.383-0.937
		c-0.174-0.275-0.391-0.496-0.651-0.665s-0.568-0.254-0.925-0.254c-0.228,0-0.434,0.034-0.616,0.103
		c-0.182,0.068-0.358,0.16-0.527,0.273c-0.168,0.114-0.333,0.252-0.493,0.41c-0.16,0.161-0.326,0.332-0.5,0.516V104.844z"/>
	<path fill="#FFFFFF" d="M109.822,106.637v-9.889h0.822v3.89c0.383-0.402,0.755-0.712,1.116-0.93c0.361-0.221,0.801-0.33,1.321-0.33
		c0.74,0,1.276,0.205,1.609,0.617c0.333,0.41,0.5,1.003,0.5,1.779v4.862h-0.822v-4.78c0-0.594-0.105-1.046-0.315-1.355
		c-0.21-0.311-0.589-0.466-1.137-0.466c-0.219,0-0.417,0.032-0.596,0.096c-0.178,0.064-0.354,0.156-0.527,0.274
		c-0.173,0.117-0.352,0.263-0.534,0.432c-0.183,0.168-0.388,0.353-0.616,0.553v5.247H109.822z"/>
	<path fill="#FFFFFF" d="M117.423,97.953v-1.205h0.822v1.205H117.423z M118.245,106.637h-0.822v-7.122h0.822V106.637z"/>
	<path fill="#FFFFFF" d="M120.669,103.103c0,0.403,0.043,0.787,0.131,1.151c0.086,0.364,0.221,0.686,0.404,0.958
		c0.182,0.274,0.419,0.494,0.712,0.658c0.292,0.163,0.639,0.246,1.041,0.246c0.228,0,0.432-0.022,0.609-0.069
		c0.178-0.044,0.347-0.122,0.507-0.231s0.315-0.257,0.466-0.439s0.317-0.414,0.5-0.697l0.671,0.356
		c-0.192,0.318-0.384,0.588-0.575,0.807c-0.192,0.22-0.397,0.396-0.616,0.535c-0.219,0.136-0.461,0.236-0.726,0.301
		c-0.266,0.063-0.566,0.096-0.904,0.096c-0.932,0-1.671-0.303-2.219-0.911c-0.547-0.606-0.821-1.536-0.821-2.787
		c0-0.548,0.069-1.05,0.205-1.507c0.137-0.456,0.331-0.847,0.583-1.17c0.25-0.324,0.557-0.575,0.917-0.753
		c0.361-0.18,0.77-0.268,1.226-0.268c0.484,0,0.904,0.091,1.26,0.273c0.356,0.184,0.652,0.439,0.89,0.768
		c0.237,0.328,0.414,0.722,0.528,1.178c0.113,0.456,0.171,0.958,0.171,1.506H120.669z M124.805,102.446
		c-0.082-0.739-0.287-1.324-0.616-1.754c-0.328-0.429-0.808-0.648-1.438-0.657c-0.366,0-0.679,0.08-0.938,0.239
		c-0.261,0.16-0.475,0.361-0.644,0.604s-0.294,0.504-0.376,0.786c-0.082,0.283-0.124,0.544-0.124,0.782H124.805z"/>
	<path fill="#FFFFFF" d="M131.38,106.637v-9.889h2.985c0.584,0,1.089,0.065,1.514,0.198c0.424,0.133,0.771,0.318,1.041,0.555
		c0.269,0.238,0.467,0.527,0.596,0.87c0.127,0.342,0.191,0.719,0.191,1.13c0,0.412-0.064,0.788-0.191,1.129
		c-0.128,0.344-0.327,0.633-0.596,0.871c-0.27,0.237-0.617,0.422-1.041,0.554c-0.425,0.134-0.93,0.199-1.514,0.199h-2.082v4.383
		H131.38z M132.284,101.516h2.082c0.858,0,1.479-0.173,1.863-0.516c0.384-0.341,0.575-0.841,0.575-1.499s-0.191-1.158-0.575-1.499
		c-0.384-0.343-1.005-0.515-1.863-0.515h-2.082V101.516z"/>
	<path fill="#FFFFFF" d="M139.501,106.637v-9.889h0.822v3.89c0.383-0.402,0.755-0.712,1.116-0.93c0.36-0.221,0.801-0.33,1.321-0.33
		c0.74,0,1.276,0.205,1.609,0.617c0.333,0.41,0.5,1.003,0.5,1.779v4.862h-0.822v-4.78c0-0.594-0.104-1.046-0.314-1.355
		c-0.21-0.311-0.589-0.466-1.137-0.466c-0.219,0-0.417,0.032-0.596,0.096c-0.178,0.064-0.354,0.156-0.527,0.274
		c-0.173,0.117-0.352,0.263-0.534,0.432c-0.183,0.168-0.388,0.353-0.616,0.553v5.247H139.501z"/>
	<path fill="#FFFFFF" d="M149.02,105.308h0.027l1.986-5.793h0.876l-2.657,7.629c-0.119,0.347-0.244,0.647-0.376,0.903
		s-0.286,0.466-0.458,0.631c-0.173,0.165-0.377,0.285-0.61,0.363c-0.232,0.077-0.509,0.115-0.829,0.115
		c-0.182,0-0.331-0.006-0.445-0.02c-0.114-0.014-0.222-0.034-0.322-0.063v-0.671c0.128,0.018,0.258,0.039,0.391,0.063
		c0.132,0.022,0.276,0.033,0.432,0.033c0.146,0,0.292-0.033,0.438-0.103s0.29-0.181,0.431-0.335c0.142-0.155,0.274-0.358,0.397-0.61
		s0.235-0.56,0.335-0.925l-2.479-7.012h0.904L149.02,105.308z"/>
	<path fill="#FFFFFF" d="M153.02,104.91c0.164,0.238,0.329,0.435,0.493,0.59c0.164,0.154,0.336,0.278,0.514,0.37
		c0.178,0.091,0.363,0.154,0.555,0.191c0.191,0.037,0.406,0.055,0.644,0.055c0.229,0,0.438-0.033,0.63-0.103
		c0.191-0.069,0.358-0.165,0.5-0.288c0.142-0.122,0.254-0.267,0.335-0.431c0.083-0.164,0.124-0.343,0.124-0.534
		c0-0.348-0.103-0.615-0.308-0.803c-0.206-0.186-0.463-0.336-0.774-0.451c-0.31-0.113-0.648-0.213-1.014-0.294
		c-0.365-0.082-0.703-0.194-1.013-0.336c-0.311-0.142-0.568-0.331-0.774-0.568s-0.308-0.566-0.308-0.985
		c0-0.339,0.062-0.629,0.185-0.87c0.123-0.242,0.288-0.442,0.493-0.603c0.205-0.16,0.445-0.279,0.719-0.355
		c0.274-0.078,0.562-0.117,0.863-0.117c0.603,0,1.098,0.111,1.486,0.336c0.388,0.223,0.709,0.541,0.965,0.952l-0.63,0.437
		c-0.238-0.328-0.498-0.588-0.781-0.779c-0.283-0.192-0.639-0.288-1.068-0.288c-0.402,0-0.737,0.099-1.006,0.294
		c-0.27,0.196-0.404,0.514-0.404,0.952c0,0.292,0.103,0.517,0.309,0.671c0.205,0.156,0.463,0.285,0.773,0.39
		c0.31,0.106,0.648,0.204,1.014,0.296c0.365,0.091,0.703,0.217,1.013,0.377c0.31,0.159,0.568,0.375,0.774,0.649
		s0.308,0.64,0.308,1.097c0,0.318-0.068,0.604-0.206,0.856c-0.137,0.25-0.319,0.461-0.548,0.629
		c-0.229,0.169-0.491,0.299-0.788,0.391s-0.605,0.137-0.924,0.137c-0.548,0-1.06-0.113-1.534-0.343
		c-0.475-0.228-0.882-0.593-1.219-1.095L153.02,104.91z"/>
	<path fill="#FFFFFF" d="M159.264,97.953v-1.205h0.822v1.205H159.264z M160.086,106.637h-0.822v-7.122h0.822V106.637z"/>
	<path fill="#FFFFFF" d="M167.55,109.156h-0.822v-3.437c-0.347,0.365-0.687,0.632-1.021,0.8c-0.333,0.17-0.737,0.254-1.212,0.254
		c-0.411,0-0.79-0.091-1.137-0.273c-0.347-0.184-0.644-0.437-0.89-0.761c-0.247-0.323-0.438-0.706-0.576-1.15
		c-0.137-0.443-0.205-0.925-0.205-1.444c0-1.215,0.244-2.138,0.733-2.767c0.488-0.631,1.198-0.945,2.129-0.945
		c0.493,0,0.924,0.096,1.294,0.288c0.37,0.192,0.701,0.446,0.993,0.767l0.137-0.918h0.575V109.156z M166.728,101.377
		c-0.137-0.183-0.276-0.354-0.418-0.513c-0.142-0.16-0.299-0.297-0.473-0.411s-0.36-0.203-0.561-0.267
		c-0.201-0.064-0.43-0.096-0.685-0.096c-0.356,0-0.664,0.074-0.924,0.225c-0.26,0.152-0.477,0.357-0.65,0.617
		c-0.174,0.26-0.301,0.566-0.384,0.917c-0.082,0.353-0.124,0.733-0.124,1.144c0,0.457,0.046,0.877,0.137,1.261
		c0.091,0.383,0.228,0.712,0.411,0.986c0.183,0.274,0.412,0.488,0.685,0.643c0.274,0.155,0.598,0.233,0.973,0.233
		c0.201,0,0.406-0.042,0.616-0.129s0.406-0.194,0.589-0.323c0.183-0.128,0.345-0.265,0.486-0.41
		c0.141-0.146,0.249-0.279,0.322-0.397V101.377z"/>
	<path fill="#FFFFFF" d="M175.302,99.515v7.122h-0.822v-1.122c-0.383,0.4-0.755,0.711-1.116,0.931
		c-0.361,0.219-0.801,0.328-1.322,0.328c-0.74,0-1.276-0.205-1.609-0.616c-0.333-0.411-0.5-1.004-0.5-1.78v-4.862h0.822v4.78
		c0,0.593,0.104,1.046,0.314,1.355c0.21,0.311,0.589,0.466,1.137,0.466c0.219,0,0.417-0.031,0.596-0.096
		c0.178-0.063,0.354-0.155,0.527-0.274c0.173-0.118,0.352-0.26,0.535-0.424c0.182-0.165,0.388-0.352,0.616-0.562v-5.246H175.302z"/>
	<path fill="#FFFFFF" d="M177.74,103.103c0,0.403,0.043,0.787,0.13,1.151c0.086,0.364,0.221,0.686,0.404,0.958
		c0.183,0.274,0.42,0.494,0.712,0.658c0.292,0.163,0.639,0.246,1.041,0.246c0.229,0,0.432-0.022,0.609-0.069
		c0.179-0.044,0.348-0.122,0.507-0.231c0.16-0.109,0.315-0.257,0.466-0.439s0.317-0.414,0.5-0.697l0.671,0.356
		c-0.192,0.318-0.383,0.588-0.575,0.807c-0.191,0.22-0.397,0.396-0.616,0.535c-0.219,0.136-0.461,0.236-0.726,0.301
		c-0.265,0.063-0.566,0.096-0.904,0.096c-0.932,0-1.671-0.303-2.219-0.911c-0.548-0.606-0.821-1.536-0.821-2.787
		c0-0.548,0.068-1.05,0.205-1.507c0.137-0.456,0.331-0.847,0.582-1.17c0.251-0.324,0.557-0.575,0.917-0.753
		c0.36-0.18,0.77-0.268,1.226-0.268c0.483,0,0.904,0.091,1.26,0.273c0.356,0.184,0.653,0.439,0.89,0.768s0.414,0.722,0.528,1.178
		c0.114,0.456,0.171,0.958,0.171,1.506H177.74z M181.876,102.446c-0.082-0.739-0.288-1.324-0.617-1.754
		c-0.328-0.429-0.808-0.648-1.438-0.657c-0.366,0-0.678,0.08-0.938,0.239c-0.26,0.16-0.475,0.361-0.644,0.604
		c-0.169,0.242-0.294,0.504-0.377,0.786c-0.082,0.283-0.123,0.544-0.123,0.782H181.876z"/>
	<path fill="#FFFFFF" d="M43.041,116.798c0,0.404,0.043,0.787,0.13,1.151c0.086,0.365,0.221,0.686,0.404,0.959
		c0.182,0.274,0.42,0.494,0.712,0.657c0.292,0.164,0.639,0.247,1.041,0.247c0.229,0,0.432-0.022,0.609-0.069
		c0.178-0.045,0.347-0.123,0.507-0.232c0.16-0.108,0.315-0.256,0.466-0.438s0.317-0.415,0.5-0.698l0.671,0.357
		c-0.192,0.318-0.383,0.588-0.575,0.807c-0.192,0.22-0.397,0.396-0.616,0.535c-0.219,0.136-0.461,0.236-0.726,0.301
		c-0.266,0.063-0.566,0.096-0.904,0.096c-0.932,0-1.671-0.303-2.219-0.912c-0.548-0.605-0.822-1.535-0.822-2.786
		c0-0.548,0.069-1.05,0.205-1.507c0.137-0.456,0.331-0.847,0.583-1.17c0.251-0.325,0.557-0.575,0.917-0.754
		c0.36-0.179,0.77-0.268,1.226-0.268c0.484,0,0.904,0.092,1.26,0.274s0.653,0.439,0.89,0.767c0.237,0.329,0.414,0.723,0.528,1.179
		c0.113,0.455,0.171,0.958,0.171,1.505H43.041z M47.177,116.142c-0.082-0.738-0.288-1.324-0.617-1.753
		c-0.328-0.43-0.808-0.648-1.438-0.657c-0.366,0-0.678,0.08-0.938,0.239s-0.475,0.361-0.644,0.603
		c-0.168,0.242-0.294,0.504-0.376,0.787c-0.082,0.283-0.123,0.544-0.123,0.781H47.177z"/>
	<path fill="#FFFFFF" d="M49.78,113.21v-2.328h0.821v2.328h1.562v0.658h-1.562v5.219c0,0.483,0.242,0.726,0.726,0.726
		c0.137,0,0.278-0.014,0.425-0.042c0.146-0.027,0.282-0.063,0.411-0.108v0.685c-0.137,0.019-0.276,0.043-0.418,0.075
		s-0.28,0.048-0.417,0.048c-0.584,0-0.989-0.098-1.212-0.294c-0.224-0.196-0.335-0.514-0.335-0.952v-5.355h-1.068v-0.658H49.78z"/>
	<path fill="#FFFFFF" d="M57.559,120.333v-9.889h5.643v0.738h-4.738v3.644h3.41v0.74h-3.41v4.027h4.999v0.739H57.559z"/>
	<path fill="#FFFFFF" d="M64.927,120.333v-7.123h0.822v1.124c0.384-0.402,0.755-0.712,1.116-0.931
		c0.361-0.221,0.801-0.33,1.322-0.33c0.739,0,1.276,0.205,1.609,0.617c0.333,0.41,0.5,1.004,0.5,1.78v4.862h-0.822v-4.781
		c0-0.593-0.105-1.045-0.315-1.354c-0.21-0.311-0.589-0.466-1.137-0.466c-0.219,0-0.417,0.032-0.596,0.096
		c-0.178,0.064-0.354,0.155-0.527,0.273s-0.352,0.264-0.534,0.432c-0.183,0.168-0.389,0.354-0.617,0.554v5.247H64.927z"/>
	<path fill="#FFFFFF" d="M71.611,113.21h0.876l1.945,5.862h0.027l1.972-5.862h0.876l-2.452,7.123h-0.808L71.611,113.21z"/>
	<path fill="#FFFFFF" d="M78.609,111.648v-1.204h0.821v1.204H78.609z M79.431,120.333h-0.821v-7.123h0.821V120.333z"/>
	<path fill="#FFFFFF" d="M81.609,120.333v-7.123h0.821v1.357h0.028c0.192-0.439,0.468-0.798,0.828-1.076
		c0.361-0.277,0.77-0.418,1.226-0.418h0.37v0.795h-0.37c-0.229,0-0.464,0.063-0.706,0.191s-0.465,0.302-0.671,0.521
		c-0.205,0.219-0.375,0.478-0.507,0.773c-0.132,0.297-0.199,0.615-0.199,0.952v4.027H81.609z"/>
	<path fill="#FFFFFF" d="M88.524,113.073c0.557,0,1.023,0.103,1.397,0.309c0.374,0.205,0.675,0.479,0.904,0.821
		c0.228,0.344,0.39,0.736,0.486,1.179c0.096,0.442,0.144,0.906,0.144,1.39s-0.048,0.947-0.144,1.391
		c-0.096,0.443-0.258,0.835-0.486,1.178c-0.229,0.343-0.53,0.616-0.904,0.822c-0.375,0.205-0.84,0.308-1.397,0.308
		s-1.022-0.103-1.397-0.308c-0.375-0.206-0.675-0.479-0.904-0.822c-0.228-0.343-0.39-0.734-0.486-1.178
		c-0.096-0.443-0.144-0.907-0.144-1.391s0.048-0.947,0.144-1.39c0.096-0.442,0.258-0.835,0.486-1.179
		c0.229-0.342,0.529-0.616,0.904-0.821C87.502,113.176,87.967,113.073,88.524,113.073z M88.524,113.731
		c-0.739,0-1.276,0.265-1.609,0.794c-0.333,0.529-0.5,1.278-0.5,2.246s0.167,1.717,0.5,2.247c0.333,0.528,0.87,0.794,1.609,0.794
		c0.74,0,1.276-0.266,1.61-0.794c0.333-0.53,0.5-1.279,0.5-2.247s-0.167-1.717-0.5-2.246
		C89.8,113.996,89.264,113.731,88.524,113.731z"/>
	<path fill="#FFFFFF" d="M93.072,120.333v-7.123h0.822v1.124c0.383-0.402,0.755-0.712,1.116-0.931
		c0.361-0.221,0.801-0.33,1.321-0.33c0.74,0,1.276,0.205,1.609,0.617c0.333,0.41,0.5,1.004,0.5,1.78v4.862h-0.822v-4.781
		c0-0.593-0.105-1.045-0.315-1.354c-0.21-0.311-0.589-0.466-1.137-0.466c-0.219,0-0.417,0.032-0.596,0.096
		c-0.178,0.064-0.354,0.155-0.527,0.273s-0.352,0.264-0.534,0.432s-0.388,0.354-0.616,0.554v5.247H93.072z"/>
	<path fill="#FFFFFF" d="M100.687,120.333v-7.123h0.822v1.124c0.384-0.402,0.755-0.712,1.116-0.931
		c0.361-0.221,0.801-0.33,1.322-0.33c0.739,0,1.276,0.205,1.609,0.617c0.333,0.41,0.5,1.004,0.5,1.78v4.862h-0.822v-4.781
		c0-0.593-0.105-1.045-0.315-1.354c-0.21-0.311-0.589-0.466-1.137-0.466c-0.219,0-0.417,0.032-0.596,0.096
		c-0.178,0.064-0.354,0.155-0.527,0.273s-0.352,0.264-0.534,0.432c-0.183,0.168-0.389,0.354-0.617,0.554v5.247H100.687z"/>
	<path fill="#FFFFFF" d="M108.494,116.798c0,0.404,0.043,0.787,0.13,1.151c0.086,0.365,0.221,0.686,0.404,0.959
		c0.182,0.274,0.42,0.494,0.712,0.657c0.292,0.164,0.639,0.247,1.041,0.247c0.229,0,0.432-0.022,0.609-0.069
		c0.179-0.045,0.347-0.123,0.507-0.232c0.16-0.108,0.315-0.256,0.466-0.438s0.317-0.415,0.5-0.698l0.671,0.357
		c-0.192,0.318-0.383,0.588-0.575,0.807c-0.192,0.22-0.397,0.396-0.616,0.535c-0.219,0.136-0.461,0.236-0.726,0.301
		c-0.266,0.063-0.566,0.096-0.904,0.096c-0.932,0-1.671-0.303-2.219-0.912c-0.548-0.605-0.822-1.535-0.822-2.786
		c0-0.548,0.069-1.05,0.205-1.507c0.137-0.456,0.331-0.847,0.583-1.17c0.251-0.325,0.557-0.575,0.917-0.754
		c0.36-0.179,0.77-0.268,1.226-0.268c0.483,0,0.904,0.092,1.26,0.274s0.653,0.439,0.89,0.767c0.237,0.329,0.414,0.723,0.528,1.179
		c0.114,0.455,0.171,0.958,0.171,1.505H108.494z M112.63,116.142c-0.082-0.738-0.288-1.324-0.617-1.753
		c-0.328-0.43-0.808-0.648-1.438-0.657c-0.366,0-0.678,0.08-0.938,0.239s-0.475,0.361-0.644,0.603
		c-0.168,0.242-0.294,0.504-0.376,0.787c-0.082,0.283-0.123,0.544-0.123,0.781H112.63z"/>
	<path fill="#FFFFFF" d="M115.15,120.333v-7.123h0.822v1.083c0.182-0.192,0.356-0.363,0.521-0.514
		c0.165-0.151,0.338-0.278,0.521-0.384c0.182-0.104,0.381-0.186,0.596-0.239c0.214-0.055,0.459-0.083,0.732-0.083
		c0.402,0,0.765,0.117,1.089,0.35s0.537,0.551,0.637,0.952c0.319-0.374,0.664-0.685,1.034-0.932c0.37-0.246,0.81-0.37,1.321-0.37
		c0.63,0,1.1,0.165,1.411,0.493c0.311,0.329,0.466,0.809,0.466,1.438v5.328h-0.822v-5.41c0-0.401-0.105-0.701-0.315-0.897
		c-0.21-0.196-0.516-0.294-0.917-0.294c-0.155,0-0.334,0.038-0.535,0.115c-0.2,0.078-0.399,0.181-0.596,0.309
		c-0.196,0.129-0.381,0.272-0.554,0.432c-0.174,0.16-0.315,0.326-0.425,0.499v5.247h-0.822v-5.41c0-0.401-0.105-0.701-0.315-0.897
		c-0.21-0.196-0.516-0.294-0.918-0.294c-0.155,0-0.333,0.038-0.534,0.115c-0.201,0.078-0.4,0.181-0.596,0.309
		c-0.197,0.129-0.381,0.272-0.555,0.432c-0.174,0.16-0.315,0.326-0.425,0.499v5.247H115.15z"/>
	<path fill="#FFFFFF" d="M126.75,116.798c0,0.404,0.043,0.787,0.13,1.151c0.086,0.365,0.221,0.686,0.404,0.959
		c0.182,0.274,0.42,0.494,0.712,0.657c0.292,0.164,0.639,0.247,1.041,0.247c0.229,0,0.432-0.022,0.609-0.069
		c0.178-0.045,0.347-0.123,0.507-0.232c0.16-0.108,0.315-0.256,0.466-0.438s0.317-0.415,0.5-0.698l0.671,0.357
		c-0.192,0.318-0.383,0.588-0.575,0.807c-0.192,0.22-0.397,0.396-0.616,0.535c-0.219,0.136-0.461,0.236-0.726,0.301
		c-0.266,0.063-0.566,0.096-0.904,0.096c-0.932,0-1.671-0.303-2.219-0.912c-0.548-0.605-0.822-1.535-0.822-2.786
		c0-0.548,0.069-1.05,0.205-1.507c0.137-0.456,0.331-0.847,0.583-1.17c0.251-0.325,0.557-0.575,0.917-0.754
		c0.36-0.179,0.77-0.268,1.226-0.268c0.484,0,0.904,0.092,1.26,0.274s0.653,0.439,0.89,0.767c0.237,0.329,0.414,0.723,0.528,1.179
		c0.113,0.455,0.171,0.958,0.171,1.505H126.75z M130.886,116.142c-0.082-0.738-0.288-1.324-0.617-1.753
		c-0.328-0.43-0.808-0.648-1.438-0.657c-0.366,0-0.678,0.08-0.938,0.239s-0.475,0.361-0.644,0.603
		c-0.169,0.242-0.294,0.504-0.376,0.787c-0.082,0.283-0.123,0.544-0.123,0.781H130.886z"/>
	<path fill="#FFFFFF" d="M133.406,120.333v-7.123h0.822v1.124c0.383-0.402,0.755-0.712,1.116-0.931
		c0.361-0.221,0.801-0.33,1.321-0.33c0.74,0,1.276,0.205,1.609,0.617c0.333,0.41,0.5,1.004,0.5,1.78v4.862h-0.822v-4.781
		c0-0.593-0.105-1.045-0.315-1.354c-0.21-0.311-0.589-0.466-1.137-0.466c-0.219,0-0.417,0.032-0.596,0.096
		c-0.178,0.064-0.354,0.155-0.527,0.273s-0.352,0.264-0.534,0.432s-0.388,0.354-0.616,0.554v5.247H133.406z"/>
	<path fill="#FFFFFF" d="M141.104,113.21v-2.328h0.821v2.328h1.562v0.658h-1.562v5.219c0,0.483,0.242,0.726,0.726,0.726
		c0.137,0,0.278-0.014,0.425-0.042c0.146-0.027,0.283-0.063,0.411-0.108v0.685c-0.137,0.019-0.276,0.043-0.418,0.075
		s-0.28,0.048-0.417,0.048c-0.584,0-0.988-0.098-1.212-0.294c-0.224-0.196-0.335-0.514-0.335-0.952v-5.355h-1.068v-0.658H141.104z"
		/>
	<path fill="#FFFFFF" d="M148.719,120.333l-0.11-0.863c-0.21,0.164-0.413,0.312-0.609,0.438c-0.197,0.128-0.396,0.232-0.596,0.314
		c-0.201,0.082-0.414,0.145-0.637,0.185c-0.224,0.042-0.473,0.063-0.747,0.063c-0.557,0-1.023-0.163-1.397-0.486
		c-0.374-0.324-0.562-0.782-0.562-1.377c0-0.484,0.098-0.881,0.294-1.19c0.196-0.311,0.486-0.568,0.87-0.773
		c0.384-0.206,0.86-0.382,1.431-0.528c0.571-0.146,1.226-0.301,1.966-0.466v-0.493c0-0.475-0.119-0.83-0.356-1.067
		c-0.237-0.239-0.662-0.356-1.274-0.356c-0.429,0-0.814,0.111-1.157,0.335c-0.343,0.224-0.646,0.541-0.911,0.953l-0.548-0.33
		c0.311-0.575,0.685-0.987,1.123-1.239c0.438-0.251,0.945-0.377,1.52-0.377c0.813,0,1.414,0.174,1.801,0.521
		c0.388,0.346,0.583,0.916,0.583,1.712v3.726c0,0.183,0.006,0.386,0.02,0.608c0.014,0.225,0.043,0.454,0.089,0.692H148.719z
		 M148.582,116.306c-0.813,0.183-1.463,0.361-1.952,0.535c-0.489,0.174-0.863,0.354-1.123,0.54c-0.261,0.188-0.43,0.379-0.507,0.575
		c-0.078,0.197-0.116,0.409-0.116,0.637c0,0.393,0.118,0.694,0.356,0.905c0.237,0.209,0.542,0.314,0.917,0.314
		c0.384,0,0.795-0.105,1.233-0.314c0.438-0.211,0.835-0.498,1.191-0.863V116.306z"/>
	<path fill="#FFFFFF" d="M151.664,110.444h0.821v9.889h-0.821V110.444z"/>
	<path fill="#FFFFFF" d="M154.909,116.798c0,0.404,0.043,0.787,0.13,1.151c0.086,0.365,0.221,0.686,0.404,0.959
		c0.183,0.274,0.42,0.494,0.712,0.657c0.292,0.164,0.639,0.247,1.041,0.247c0.229,0,0.432-0.022,0.609-0.069
		c0.179-0.045,0.347-0.123,0.507-0.232c0.16-0.108,0.315-0.256,0.466-0.438s0.317-0.415,0.5-0.698l0.671,0.357
		c-0.192,0.318-0.383,0.588-0.575,0.807c-0.192,0.22-0.397,0.396-0.616,0.535c-0.219,0.136-0.461,0.236-0.726,0.301
		c-0.266,0.063-0.566,0.096-0.904,0.096c-0.932,0-1.671-0.303-2.219-0.912c-0.548-0.605-0.822-1.535-0.822-2.786
		c0-0.548,0.069-1.05,0.205-1.507c0.137-0.456,0.331-0.847,0.583-1.17c0.251-0.325,0.557-0.575,0.917-0.754
		c0.36-0.179,0.77-0.268,1.226-0.268c0.483,0,0.904,0.092,1.26,0.274c0.356,0.183,0.653,0.439,0.89,0.767
		c0.237,0.329,0.414,0.723,0.528,1.179c0.114,0.455,0.171,0.958,0.171,1.505H154.909z M159.045,116.142
		c-0.082-0.738-0.288-1.324-0.617-1.753c-0.328-0.43-0.808-0.648-1.438-0.657c-0.366,0-0.678,0.08-0.938,0.239
		s-0.475,0.361-0.644,0.603c-0.169,0.242-0.294,0.504-0.377,0.787c-0.082,0.283-0.123,0.544-0.123,0.781H159.045z"/>
</g>
</svg>
